<mxfile host="Electron" agent="Mozilla/5.0 (Windows NT 10.0; Win64; x64) AppleWebKit/537.36 (KHTML, like Gecko) draw.io/24.7.5 Chrome/126.0.6478.183 Electron/31.3.0 Safari/537.36" version="24.7.5">
  <diagram name="Page-1" id="HGn6BluTCV8x_RHfxVqf">
    <mxGraphModel dx="1098" dy="1758" grid="1" gridSize="10" guides="1" tooltips="1" connect="1" arrows="1" fold="1" page="1" pageScale="1" pageWidth="850" pageHeight="1100" math="0" shadow="0">
      <root>
        <mxCell id="0" />
        <mxCell id="1" parent="0" />
        <mxCell id="8upH1nWvDKxVjO81YoA_-3" value="&lt;font color=&quot;#0066cc&quot; size=&quot;1&quot; face=&quot;Helvetica&quot; style=&quot;&quot;&gt;&lt;b style=&quot;font-size: 200px;&quot;&gt;&lt;i style=&quot;&quot;&gt;Q&lt;/i&gt;&lt;/b&gt;&lt;/font&gt;" style="text;strokeColor=none;align=center;fillColor=none;html=1;verticalAlign=middle;whiteSpace=wrap;rounded=0;" vertex="1" parent="1">
          <mxGeometry x="320" y="-30" width="270" height="210" as="geometry" />
        </mxCell>
        <mxCell id="8upH1nWvDKxVjO81YoA_-4" value="&lt;font color=&quot;#0066cc&quot; face=&quot;Verdana&quot; size=&quot;1&quot; style=&quot;&quot;&gt;&lt;b style=&quot;font-size: 68px;&quot;&gt;H&lt;/b&gt;&lt;/font&gt;" style="text;strokeColor=none;align=center;fillColor=none;html=1;verticalAlign=middle;whiteSpace=wrap;rounded=0;" vertex="1" parent="1">
          <mxGeometry x="425" y="36" width="78" height="65" as="geometry" />
        </mxCell>
      </root>
    </mxGraphModel>
  </diagram>
</mxfile>
